<?xml version="1.0" standalone="no"?>
<!DOCTYPE svg PUBLIC "-//W3C//DTD SVG 20010904//EN"
 "http://www.w3.org/TR/2001/REC-SVG-20010904/DTD/svg10.dtd">
<svg version="1.0" xmlns="http://www.w3.org/2000/svg"
 width="300.000000pt" height="300.000000pt" viewBox="0 0 300.000000 300.000000"
 preserveAspectRatio="xMidYMid meet">
<metadata>
Created by potrace 1.10, written by Peter Selinger 2001-2011
</metadata>
<g transform="translate(0.000000,300.000000) scale(0.100000,-0.100000)"
fill="#000000" stroke="none">
<path d="M1325 2376 c-127 -26 -231 -68 -341 -142 -309 -204 -452 -611 -343
-972 27 -89 97 -219 159 -296 126 -160 318 -274 525 -313 99 -19 312 -13 399
11 214 59 396 187 511 360 108 163 148 293 148 486 0 151 -25 265 -83 385
-114 237 -313 396 -588 471 -80 22 -298 27 -387 10z m344 -35 c272 -55 528
-263 616 -501 9 -25 21 -54 25 -65 37 -85 50 -324 25 -435 -58 -251 -221 -461
-445 -573 -147 -74 -255 -98 -415 -93 -60 2 -125 7 -144 11 -335 68 -607 333
-676 662 -26 119 -16 308 20 418 56 168 166 324 295 420 51 37 190 110 241
126 146 46 321 57 458 30z"/>
<path d="M936 1860 c-9 -23 -12 -111 -12 -345 1 -360 -3 -344 93 -345 85 0 90
11 92 193 1 83 5 155 10 160 6 6 29 -6 57 -29 27 -22 55 -44 64 -51 8 -6 59
-48 113 -92 100 -83 130 -98 170 -87 19 5 215 155 287 220 14 12 47 37 73 55
26 18 78 60 114 94 l65 61 -4 88 c-2 50 -9 93 -16 100 -26 26 -65 -1 -409
-279 -70 -57 -133 -103 -140 -103 -14 0 -113 70 -143 100 -8 8 -42 35 -75 60
-33 24 -69 52 -80 61 -11 10 -40 34 -65 54 -25 20 -52 42 -61 49 -38 31 -95
66 -107 66 -7 0 -19 -14 -26 -30z m1094 -69 l0 -89 -266 -212 -265 -211 -172
137 c-95 76 -190 152 -213 171 l-41 33 4 -210 4 -210 -63 0 -63 0 0 335 c0
184 1 335 1 335 1 0 120 -94 265 -210 145 -115 266 -210 269 -210 3 0 125 96
270 214 146 118 266 214 268 215 1 1 2 -39 2 -88z"/>
<path d="M1990 1603 c-8 -3 -34 -21 -56 -39 -52 -42 -64 -85 -64 -232 0 -95 3
-113 21 -136 18 -23 28 -26 78 -26 92 0 93 1 89 229 -2 157 -6 193 -18 201
-17 11 -27 11 -50 3z m40 -208 l0 -195 -60 0 -60 0 0 148 0 147 52 47 c29 26
56 48 61 48 4 0 7 -88 7 -195z"/>
</g>
</svg>
