<svg xmlns="http://www.w3.org/2000/svg" viewBox="0 0 740 390">
  <rect width="740" height="390" fill="#fff"/>
  <path d="M0 0h300v210H0z" fill="#002868"/>
  <path d="M0 30h740M0 90h740M0 150h740M0 210h740M0 270h740M0 330h740" stroke="#bf0a30" stroke-width="30"/>
  <g fill="#fff">
    <path d="M40 30l6.2 18.8H25l15.3-11.6-5.8 18.2zM100 30l6.2 18.8H85l15.3-11.6-5.8 18.2zM160 30l6.2 18.8H145l15.3-11.6-5.8 18.2zM220 30l6.2 18.8H205l15.3-11.6-5.8 18.2zM280 30l6.2 18.8H265l15.3-11.6-5.8 18.2zM70 60l6.2 18.8H55l15.3-11.6-5.8 18.2zM130 60l6.2 18.8H115l15.3-11.6-5.8 18.2zM190 60l6.2 18.8H175l15.3-11.6-5.8 18.2zM250 60l6.2 18.8H235l15.3-11.6-5.8 18.2zM40 90l6.2 18.8H25l15.3-11.6-5.8 18.2zM100 90l6.2 18.8H85l15.3-11.6-5.8 18.2zM160 90l6.2 18.8H145l15.3-11.6-5.8 18.2zM220 90l6.2 18.8H205l15.3-11.6-5.8 18.2zM280 90l6.2 18.8H265l15.3-11.6-5.8 18.2zM70 120l6.2 18.8H55l15.3-11.6-5.8 18.2zM130 120l6.2 18.8H115l15.3-11.6-5.8 18.2zM190 120l6.2 18.8H175l15.3-11.6-5.8 18.2zM250 120l6.2 18.8H235l15.3-11.6-5.8 18.2zM40 150l6.2 18.8H25l15.3-11.6-5.8 18.2zM100 150l6.2 18.8H85l15.3-11.6-5.8 18.2zM160 150l6.2 18.8H145l15.3-11.6-5.8 18.2zM220 150l6.2 18.8H205l15.3-11.6-5.8 18.2zM280 150l6.2 18.8H265l15.3-11.6-5.8 18.2zM70 180l6.2 18.8H55l15.3-11.6-5.8 18.2zM130 180l6.2 18.8H115l15.3-11.6-5.8 18.2zM190 180l6.2 18.8H175l15.3-11.6-5.8 18.2zM250 180l6.2 18.8H235l15.3-11.6-5.8 18.2z"/>
  </g>
</svg>